<svg width="202" height="106" viewBox="0 0 202 106" fill="none" xmlns="http://www.w3.org/2000/svg">
<path d="M149.24 77.3C145.4 81.74 140.52 83.96 134.6 83.96C131.88 83.96 129.18 83.42 126.5 82.34C123.86 81.22 121.64 79.7 119.84 77.78C115.88 73.62 113.9 68.26 113.9 61.7C113.9 55.42 115.88 50.26 119.84 46.22C123.72 42.22 128.06 40.22 132.86 40.22C134.82 40.22 137.14 40.56 139.82 41.24C142.5 41.88 144.68 42.72 146.36 43.76C146.68 43.96 147.04 44.06 147.44 44.06C147.96 44.06 148.4 43.9 148.76 43.58C149.12 43.22 149.36 42.74 149.48 42.14C149.6 41.5 149.96 41.18 150.56 41.18H151.1L151.76 49.04C151.8 49.84 151.62 50.58 151.22 51.26C150.82 51.94 150.44 52.42 150.08 52.7C149.72 52.94 149.34 53.14 148.94 53.3C146.94 49.62 144.48 46.78 141.56 44.78C138.68 42.78 135.6 41.78 132.32 41.78C129.16 41.78 126.46 42.68 124.22 44.48C122.22 46.12 120.86 48.48 120.14 51.56C119.46 54.6 119.4 57.76 119.96 61.04C120.52 64.28 121.54 67.22 123.02 69.86C124.86 73.06 127.08 75.56 129.68 77.36C132.32 79.12 135.1 80 138.02 80C139.74 80 141.44 79.7 143.12 79.1C144.48 78.62 145.5 78.06 146.18 77.42C146.9 76.82 147.26 75.92 147.26 74.72V66.92C147.26 65.28 146.44 64.46 144.8 64.46H141.98V63.38L157.94 63.32V64.46H156.08C154.48 64.46 153.68 65.28 153.68 66.92V82.94H152.3L149.54 77L149.24 77.3ZM196.487 82.94H182.747V81.92C183.947 81.88 184.867 81.54 185.507 80.9C186.147 80.26 186.467 79.38 186.467 78.26L186.407 61.94H167.387L167.447 78.26C167.447 80.62 168.687 81.84 171.167 81.92V82.94H157.427V81.92C158.627 81.88 159.547 81.54 160.187 80.9C160.827 80.26 161.147 79.38 161.147 78.26L161.027 45.8C161.027 43.4 159.787 42.16 157.307 42.08V41.06H171.047V42.08C169.847 42.12 168.927 42.46 168.287 43.1C167.647 43.74 167.327 44.64 167.327 45.8L167.387 60.74H186.407L186.347 45.8C186.347 43.4 185.107 42.16 182.627 42.08V41.06H196.367V42.08C195.167 42.12 194.247 42.46 193.607 43.1C192.967 43.74 192.647 44.64 192.647 45.8L192.767 78.26C192.767 80.62 194.007 81.84 196.487 81.92V82.94Z" fill="black"/>
<path d="M86.4506 17.4398C89.7559 21.5892 89.2235 28.5695 85.0007 36.8679C80.8224 45.0787 73.1962 54.2069 63.0871 62.2597C52.9779 70.3124 42.3756 75.7046 33.4385 77.9412C24.406 80.2016 17.4833 79.1598 14.178 75.0105C10.8727 70.8611 11.4051 63.8807 15.628 55.5823C19.8062 47.3716 27.4324 38.2433 37.5416 30.1906C47.6508 22.1378 58.2531 16.7457 67.1901 14.5091C76.2227 12.2486 83.1454 13.2904 86.4506 17.4398Z" stroke="black" stroke-width="2"/>
<path d="M98.4303 30.0589C101.736 34.2082 101.203 41.1886 96.9803 49.487C92.8021 57.6978 85.1759 66.826 75.0667 74.8788C64.9575 82.9315 54.3552 88.3236 45.4182 90.5602C36.3856 92.8207 29.4629 91.7789 26.1577 87.6296C22.8524 83.4802 23.3848 76.4998 27.6076 68.2014C31.7859 59.9907 39.412 50.8624 49.5212 42.8097C59.6304 34.7569 70.2327 29.3648 79.1698 27.1282C88.2023 24.8677 95.125 25.9095 98.4303 30.0589Z" stroke="black" stroke-width="2"/>
</svg>
