<svg width="77" height="77" viewBox="0 0 77 77" fill="none" xmlns="http://www.w3.org/2000/svg">
<path d="M37.5244 1.33077C37.7588 0.29044 39.2412 0.290439 39.4756 1.33077L45.9907 30.2535C46.0756 30.6302 46.3698 30.9244 46.7465 31.0093L75.6692 37.5244C76.7096 37.7588 76.7096 39.2412 75.6692 39.4756L46.7465 45.9907C46.3698 46.0756 46.0756 46.3698 45.9907 46.7465L39.4756 75.6692C39.2412 76.7096 37.7588 76.7096 37.5244 75.6692L31.0093 46.7465C30.9244 46.3698 30.6302 46.0756 30.2535 45.9907L1.33077 39.4756C0.29044 39.2412 0.290439 37.7588 1.33077 37.5244L30.2535 31.0093C30.6302 30.9244 30.9244 30.6302 31.0093 30.2535L37.5244 1.33077Z" fill="black"/>
</svg>
